HIERARCHY
ROOT Hips
{
	OFFSET 0.00000 0.00000 0.00000
	CHANNELS 6 Xposition Yposition Zposition Yrotation Zrotation Xrotation 
	JOINT Lumbar
	{
		OFFSET 0 0 0
		CHANNELS 3 Zrotation Xrotation Yrotation
		JOINT Neck
		{
			OFFSET 0.00 0.2701 0.00
			CHANNELS 3 Zrotation Xrotation Yrotation
			End Site
			{
				OFFSET 0.00 0.1379 0.00
			}
		}
		JOINT RightShoulder
		{
			OFFSET 0.0119 0.2289 0.1181
			CHANNELS 3 Zrotation Xrotation Yrotation
			JOINT RightElbow
			{
				OFFSET 0.00 -0.1475 0.00
				CHANNELS 2 Zrotation Yrotation
				JOINT RightWrist
				{
					OFFSET 0.00 -0.1605 0.00
					CHANNELS 2 Zrotation Xrotation
					End Site
					{
						OFFSET 0.0040 -0.1068 0.0006
					}
				}
			}
		}
		JOINT LeftShoulder
		{
			OFFSET 0.0119 0.2289 -0.1181
			CHANNELS 3 Zrotation Xrotation Yrotation
			JOINT LeftElbow
			{
				OFFSET 0.00 -0.1475 0.00
				CHANNELS 2 Zrotation Yrotation
				JOINT LeftWrist
				{
					OFFSET 0.00 -0.1605 0.00
					CHANNELS 2 Zrotation Xrotation
					End Site
					{
						OFFSET 0.0040 -0.1068 -0.0006
					}
				}
			}
		}
	}
	JOINT RightHip
	{
		OFFSET 0.0316 -0.0424 0.0458
		CHANNELS 3 Zrotation Xrotation Yrotation
		JOINT RightKnee
		{
			OFFSET 0.00 -0.2438 0.00
			CHANNELS 1 Zrotation
			JOINT RightAnkle
			{
				OFFSET 0.00 -0.2449 0.00
				CHANNELS 3 Zrotation Xrotation Yrotation
				End Site
				{
					OFFSET 0.1237 -0.0542 0.0051
				}
			}
		}
	}
	JOINT LeftHip
	{
		OFFSET 0.0316 -0.0424 -0.0458
		CHANNELS 3 Zrotation Xrotation Yrotation
		JOINT LeftKnee
		{
			OFFSET 0.00 -0.2438 0.00
			CHANNELS 1 Zrotation
			JOINT LeftAnkle
			{
				OFFSET 0.00 -0.2449 0.00
				CHANNELS 3 Zrotation Xrotation Yrotation
				End Site
				{
					OFFSET 0.1237 -0.0542 -0.0051
				}
			}
		}
	}
}
MOTION
Frames: 33
Frame Time: 0.02
0.04289 -0.56666 0.00255 14.95658 16.93475 -2.37188 -18.1565 8.93286 -3.42303 4.29084 -40.66666 -0.83079 47.55612 9.58627 55.25171 24.72286 86.37135 0.16907 -7.24167 43.65706 0.90819 -62.36245 78.17872 -105.50301 43.71765 1.52263 94.14103 7.08953 -18.8644 -16.79644 -17.34187 -4.11803 -3.38581 130.40519 10.70581 40.6227 -126.14993 10.66114 -19.63402 -7.95644
0.04287 -0.56671 0.00253 14.97 16.96138 -2.39783 -18.15826 8.93177 -3.44858 4.39187 -40.7852 -0.83079 47.56287 9.58223 55.20033 24.66544 86.40734 0.05977 -7.2368 43.71142 0.93275 -62.36214 78.1275 -105.44378 43.67245 1.51478 94.11635 7.08623 -18.81975 -16.78959 -17.34581 -4.12496 -3.3908 130.40519 10.68118 40.6227 -126.13535 10.59595 -19.58179 -7.89719
0.04287 -0.56676 0.00252 14.9773 16.97468 -2.41781 -18.15804 8.92675 -3.48936 4.52468 -40.92505 -0.83079 47.56795 9.57716 55.19598 24.68172 86.34164 -0.04884 -7.27901 43.77045 0.97221 -62.36371 78.10182 -105.33307 43.63097 1.51106 94.10512 7.09658 -18.7329 -16.77545 -17.35494 -4.13311 -3.39747 130.40519 10.65403 40.6227 -126.11924 10.58086 -19.5486 -7.86297
0.04285 -0.56681 0.00251 14.98687 16.99354 -2.4403 -18.15861 8.92295 -3.52175 4.64275 -41.05232 -0.83079 47.57338 9.572 55.16996 24.66339 86.32581 -0.15246 -7.29652 43.82597 1.00198 -62.3644 78.06655 -105.2528 43.58978 1.5051 94.08837 7.10013 -18.67089 -16.76579 -17.36118 -4.14042 -3.40309 130.40519 10.62922 40.6227 -126.10418 10.54259 -19.50699 -7.81815
0.04284 -0.56687 0.0025 14.99852 17.01457 -2.46384 -18.16007 8.9217 -3.56013 4.76257 -41.19163 -0.83079 47.58122 9.5678 55.14821 24.64806 86.29862 -0.27772 -7.32666 43.88687 1.04326 -62.36517 78.02358 -105.14485 43.54014 1.50021 94.06912 7.10557 -18.58843 -16.75196 -17.36931 -4.14888 -3.40981 130.40519 10.59953 40.6227 -126.08762 10.50523 -19.46391 -7.76932
0.04283 -0.56691 0.00249 15.00451 17.02797 -2.48379 -18.15912 8.91425 -3.58976 4.88571 -41.31097 -0.83079 47.58348 9.56187 55.1279 24.6446 86.26928 -0.35836 -7.34242 43.93787 1.06458 -62.36623 78.00215 -105.08115 43.50882 1.49433 94.0582 7.11056 -18.53684 -16.74474 -17.37488 -4.15527 -3.4147 130.40519 10.57919 40.6227 -126.07387 10.47821 -19.42855 -7.73496
0.04286 -0.56691 0.00249 14.99521 17.0226 -2.49427 -18.15107 8.88941 -3.59128 5.01511 -41.3704 -0.83079 47.56965 9.5517 55.09593 24.65634 86.26007 -0.31184 -7.30399 43.96016 1.02516 -62.3676 78.03703 -105.15683 43.52976 1.4837 94.06781 7.11106 -18.5857 -16.75813 -17.372 -4.15541 -3.41392 130.40519 10.58701 40.6227 -126.06781 10.46754 -19.41024 -7.73549
0.0429 -0.5669 0.00249 14.98068 17.01016 -2.50155 -18.14078 8.85875 -3.58355 5.14581 -41.40895 -0.83079 47.55039 9.53998 55.06409 24.67763 86.25142 -0.22124 -7.25019 43.97248 0.96558 -62.36919 78.09201 -105.2776 43.56854 1.47212 94.08517 7.11068 -18.66579 -16.77817 -17.36641 -4.15348 -3.4113 130.40519 10.60393 40.6227 -126.06473 10.46577 -19.39898 -7.74949
0.04294 -0.5669 0.00249 14.96927 17.00159 -2.51082 -18.13204 8.83144 -3.5802 5.27277 -41.45682 -0.83079 47.53419 9.52899 55.03435 24.69452 86.24121 -0.15356 -7.20552 43.98956 0.91666 -62.3707 78.13579 -105.3747 43.59755 1.46176 94.09849 7.11078 -18.72794 -16.79479 -17.36217 -4.15263 -3.40966 130.40519 10.61564 40.6227 -126.06056 10.45986 -19.38436 -7.75691
0.04297 -0.56689 0.0025 14.95438 16.98985 -2.51734 -18.12092 8.80071 -3.57656 5.41428 -41.50619 -0.83079 47.5153 9.51783 54.99709 24.71428 86.23308 -0.07367 -7.15335 44.00567 0.86201 -62.37221 78.18941 -105.48408 43.63385 1.44844 94.11457 7.11114 -18.8044 -16.81308 -17.35766 -4.1512 -3.40746 130.40519 10.6321 40.6227 -126.05518 10.45558 -19.37124 -7.76767
0.04301 -0.56689 0.00249 14.94573 16.98313 -2.52926 -18.11435 8.77617 -3.57122 5.52518 -41.54716 -0.83079 47.5009 9.50666 54.97502 24.72928 86.222 -0.00872 -7.1126 44.02158 0.81419 -62.37372 78.22668 -105.57846 43.65899 1.44072 94.12641 7.11042 -18.85915 -16.82927 -17.35295 -4.15051 -3.40599 130.40519 10.64047 40.6227 -126.05308 10.44999 -19.35619 -7.77366
0.04306 -0.56688 0.00247 14.95422 16.99286 -2.55381 -18.12013 8.76658 -3.56275 5.5528 -41.57007 -0.83079 47.49874 9.49623 54.99345 24.7293 86.2034 0.00394 -7.10657 44.03733 0.79125 -62.37522 78.21647 -105.6275 43.65041 1.45131 94.12611 7.10812 -18.84505 -16.84051 -17.34892 -4.15193 -3.40673 130.40519 10.62782 40.6227 -126.05923 10.43304 -19.3361 -7.76933
0.04311 -0.56686 0.00244 14.96942 17.0078 -2.58442 -18.1307 8.76401 -3.55296 5.54917 -41.58513 -0.83079 47.50151 9.48582 55.02714 24.72377 86.18217 0.00013 -7.11241 44.0535 0.77563 -62.37668 78.1886 -105.65899 43.62975 1.46714 94.12099 7.10449 -18.80846 -16.84904 -17.34466 -4.15423 -3.40829 130.40519 10.60617 40.6227 -126.06861 10.41513 -19.31342 -7.75866
0.04316 -0.56685 0.00242 14.98254 17.01988 -2.61444 -18.13964 8.76071 -3.54418 5.5586 -41.60368 -0.83079 47.50303 9.47515 55.05459 24.72002 86.16212 0.00399 -7.113 44.07084 0.75586 -62.3781 78.16683 -105.69384 43.6136 1.47875 94.11698 7.10057 -18.78322 -16.85713 -17.34008 -4.15644 -3.40964 130.40519 10.58617 40.6227 -126.0766 10.40123 -19.29045 -7.74651
0.04322 -0.56683 0.00238 14.99156 17.0338 -2.63563 -18.14632 8.74722 -3.53336 5.57274 -41.6219 -0.83079 47.50036 9.46539 55.07931 24.71961 86.14206 0.0085 -7.11256 44.08235 0.73878 -62.37977 78.15347 -105.74891 43.60201 1.49781 94.11758 7.10026 -18.75431 -16.87225 -17.33714 -4.15732 -3.4103 130.40519 10.57631 40.62271 -126.0844 10.37311 -19.27368 -7.75249
0.04325 -0.56682 0.00238 15.01054 17.04522 -2.67615 -18.15874 8.75618 -3.52655 5.56985 -41.63915 -0.83079 47.50744 9.45384 55.11312 24.71101 86.12142 0.0073 -7.11717 44.10591 0.71822 -62.38092 78.1187 -105.75812 43.5781 1.50299 94.10761 7.09231 -18.72723 -16.87234 -17.33085 -4.16113 -3.41256 130.40519 10.54367 40.62271 -126.09327 10.37359 -19.2436 -7.72001
0.0432 -0.56683 0.00249 15.05765 17.0486 -2.77327 -18.18709 8.83012 -3.53171 5.52549 -41.65634 -0.83079 47.54211 9.43675 55.17006 24.67929 86.09982 -0.007 -7.1339 44.16546 0.68532 -62.38056 78.02414 -105.63617 43.52046 1.46526 94.06718 7.06193 -18.71147 -16.82864 -17.31459 -4.17349 -3.41945 130.40519 10.44524 40.62271 -126.10482 10.45893 -19.17459 -7.57419
0.04311 -0.56684 0.00265 15.11416 17.04932 -2.88878 -18.22087 8.92559 -3.5409 5.4654 -41.67282 -0.83079 47.58612 9.41797 55.23524 24.63984 86.07773 -0.02646 -7.15519 44.23669 0.64894 -62.37971 77.90946 -105.47013 43.45124 1.41399 94.01666 7.02421 -18.69809 -16.77039 -17.29514 -4.18864 -3.42786 130.40519 10.32508 40.62271 -126.11722 10.57203 -19.09273 -7.39137
0.04304 -0.56684 0.00278 15.1649 17.05122 -2.99278 -18.25133 9.00814 -3.54793 5.4139 -41.68926 -0.83079 47.62466 9.40037 55.29554 24.60511 86.05586 -0.04286 -7.17372 44.30077 0.61484 -62.37913 77.80721 -105.32978 43.38897 1.37113 93.97236 6.99096 -18.68288 -16.72073 -17.27768 -4.20208 -3.43532 130.40519 10.21818 40.62271 -126.12886 10.66863 -19.01859 -7.23122
0.04296 -0.56685 0.00293 15.22216 17.05338 -3.11025 -18.28544 9.10409 -3.55627 5.35537 -41.70685 -0.83079 47.66852 9.38104 55.36133 24.56506 86.0339 -0.06279 -7.1955 44.37251 0.57802 -62.37832 77.69059 -105.16481 43.31917 1.31901 93.92111 6.95293 -18.66982 -16.66276 -17.25791 -4.21743 -3.4439 130.40519 10.09677 40.62271 -126.14216 10.78143 -18.93653 -7.04641
0.0429 -0.56685 0.00305 15.26804 17.05436 -3.20402 -18.3133 9.17727 -3.56286 5.30797 -41.7221 -0.83079 47.70349 9.36487 55.41725 24.53438 86.01207 -0.07641 -7.21151 44.43119 0.54596 -62.37793 77.5992 -105.04107 43.26246 1.28278 93.88187 6.92306 -18.65344 -16.61855 -17.2422 -4.22944 -3.45051 130.40519 10.00042 40.62271 -126.15219 10.8673 -18.86782 -6.90388
0.0429 -0.56684 0.00307 15.27977 17.05227 -3.22723 -18.32153 9.18116 -3.56354 5.2968 -41.72995 -0.83079 47.71116 9.35827 55.44561 24.53098 85.99064 -0.07121 -7.20972 44.45008 0.52772 -62.37848 77.58371 -105.04019 43.24488 1.29469 93.87934 6.91814 -18.62497 -16.61704 -17.23842 -4.23142 -3.45126 130.40519 9.97982 40.62271 -126.1527 10.8701 -18.8404 -6.89053
0.04292 -0.56681 0.00305 15.27977 17.04914 -3.22603 -18.32343 9.16156 -3.56232 5.29724 -41.73568 -0.83079 47.70961 9.35483 55.46339 24.5374 85.9694 -0.05944 -7.20202 44.45573 0.51445 -62.37974 77.59414 -105.08264 43.24097 1.32281 93.88906 6.92158 -18.59372 -16.62971 -17.23884 -4.22994 -3.44999 130.40519 9.98502 40.6227 -126.1499 10.84515 -18.82667 -6.92043
0.04292 -0.56679 0.00306 15.28541 17.04678 -3.23638 -18.32891 9.15344 -3.56201 5.29141 -41.74317 -0.83079 47.71257 9.34967 55.48474 24.53968 85.94812 -0.05068 -7.19746 44.46782 0.49888 -62.38062 77.59192 -105.10659 43.23062 1.34292 93.89246 6.92079 -18.56529 -16.63513 -17.23738 -4.2301 -3.44969 130.40519 9.97761 40.6227 -126.14879 10.83422 -18.8058 -6.92831
0.04294 -0.56677 0.00305 15.2901 17.0431 -3.24547 -18.33172 9.14271 -3.56167 5.28911 -41.7474 -0.83079 47.71456 9.34563 55.51141 24.54035 85.92659 -0.04198 -7.1912 44.47794 0.48303 -62.38084 77.59263 -105.12431 43.22046 1.36545 93.89863 6.92157 -18.53 -16.64335 -17.23573 -4.23006 -3.44922 130.40519 9.9731 40.6227 -126.14698 10.81852 -18.78822 -6.94475
0.04294 -0.56675 0.00305 15.29381 17.04193 -3.25114 -18.3384 9.13153 -3.56083 5.28252 -41.75774 -0.83079 47.7162 9.34006 55.52465 24.54674 85.9057 -0.03154 -7.18697 44.48961 0.46939 -62.38371 77.59369 -105.16546 43.21377 1.38677 93.90213 6.92113 -18.50874 -16.6494 -17.23548 -4.22959 -3.44859 130.40519 9.96906 40.6227 -126.14577 10.80556 -18.76736 -6.95428
0.04294 -0.56675 0.00306 15.29792 17.04823 -3.25314 -18.3582 9.12461 -3.55944 5.26062 -41.78721 -0.83079 47.7195 9.32941 55.50089 24.56705 85.88604 -0.0177 -7.19004 44.50185 0.45685 -62.38346 77.58946 -105.26448 43.20932 1.4024 93.89495 6.91555 -18.52327 -16.64521 -17.23828 -4.22884 -3.44806 130.40519 9.95933 40.6227 -126.14761 10.80895 -18.73317 -6.93317
0.04293 -0.56676 0.00306 15.30131 17.05703 -3.25241 -18.38188 9.11786 -3.55748 5.23422 -41.82254 -0.83079 47.72262 9.31716 55.4643 24.59272 85.8671 -0.00234 -7.19526 44.51696 0.44687 -62.38725 77.58481 -105.38511 43.20857 1.41607 93.88483 6.90848 -18.55259 -16.63859 -17.24232 -4.22775 -3.44741 130.40519 9.94951 40.6227 -126.15009 10.81555 -18.69552 -6.90421
0.04293 -0.56676 0.00307 15.30487 17.06454 -3.25311 -18.40321 9.11117 -3.55553 5.21034 -41.85408 -0.83079 47.72556 9.30572 55.43528 24.61559 85.84817 0.01221 -7.19932 44.53578 0.43845 -62.39658 77.58038 -105.49358 43.209 1.42961 93.87624 6.90188 -18.57769 -16.6336 -17.24567 -4.2268 -3.44678 130.40519 9.94017 40.6227 -126.15189 10.81921 -18.66003 -6.87941
0.04292 -0.56677 0.00308 15.30887 17.07274 -3.25254 -18.42693 9.10349 -3.55466 5.18475 -41.89046 -0.83079 47.7294 9.29399 55.39894 24.64027 85.82788 0.02743 -7.20401 44.53459 0.41955 -62.37691 77.57665 -105.61338 43.19839 1.44785 93.86702 6.89624 -18.59262 -16.6267 -17.2497 -4.22587 -3.44626 130.40519 9.92948 40.6227 -126.15513 10.82813 -18.62221 -6.8527
0.04292 -0.56677 0.00309 15.31171 17.08002 -3.2538 -18.4465 9.09775 -3.5513 5.16164 -41.91798 -0.83079 47.73129 9.28248 55.37445 24.6624 85.81054 0.0416 -7.20787 44.57388 0.42199 -62.41594 77.57114 -105.71421 43.21075 1.45584 93.85856 6.88837 -18.63167 -16.62325 -17.25256 -4.22479 -3.44548 130.40519 9.92171 40.6227 -126.15566 10.82725 -18.58866 -6.82868
0.04292 -0.56675 0.00308 15.31347 17.08485 -3.26518 -18.45539 9.10133 -3.54237 5.1453 -41.92137 -0.83079 47.72914 9.27172 55.39025 24.67547 85.80161 0.05197 -7.20991 44.7423 0.49172 -62.63935 77.55959 -105.75672 43.29185 1.43395 93.85024 6.87273 -18.73883 -16.62799 -17.25176 -4.22387 -3.44422 130.40519 9.9178 40.6227 -126.14776 10.79847 -18.5641 -6.80366
0.04292 -0.56673 0.00307 15.31383 17.08856 -3.27789 -18.45972 9.10629 -3.53077 5.13175 -41.91536 -0.83079 47.72487 9.26127 55.41773 24.68585 85.79555 0.06127 -7.2109 44.94832 0.58128 -62.91768 77.54635 -105.77927 43.39478 1.40208 93.84315 6.8552 -18.86877 -16.63653 -17.24975 -4.22274 -3.44267 130.40519 9.91738 40.6227 -126.13726 10.75991 -18.54449 -6.78308
